<svg height="512" viewBox="0 0 60 59" width="512" xmlns="http://www.w3.org/2000/svg"><g id="Page-1" fill="none" fill-rule="evenodd"><g id="020---Skull" fill-rule="nonzero" transform="translate(0 -1)"><path id="Shape" d="m51.05 35.98c.01-.01.01-.01 0-.02-.0774861-.5715577-.1978251-1.1364825-.36-1.69l-.01-.01c-2.8888091 2.1346332-6.3115721 3.4289844-9.89 3.74h-.26c-3.24 0-8.64 1.1-8.64-6.6 0-4.4 5.4-4.4 8.64-4.4h.21c.77 0 4.93-.09 6.48-1.12 2.39-1.6 3.23-5.27 3.23-9.88 0-5.93-7.54-6-7.86-6h-7.26c-5.09 0-5.09-3.11-5.09-4.15 0-.88 1.32-1.6 3.47-2.39l-.04-.11c-1.1985088-.17477872-2.4089074-.25502615-3.62-.24-12.59 0-23.83 6.74-23.83 20.72 0 3.45 1.47 8.58 2.76 11.95l-.03.18c-.01.01-.01.01 0 .02-.05657381.4308767-.07331127.8660508-.05 1.3-.01179129 1.6888403.9441212 3.235398 2.46 3.98 2.19 1.12 3.78 1.95 4.82 3.74.7945656 1.5539743 1.2544605 3.2572887 1.35 5 .03.32.06.66.08 1.01.0566197 1.0901168.9389724 1.9550832 2.03 1.99h20.72c.1619317.0010141.3233005-.019157.48-.06.8719896-.2520665 1.4920644-1.0241596 1.55-1.93.45-6.73 2.45-7.8 6.25-9.75 2.25-1.16 2.66-3.27 2.41-5.28z" fill="#ffe0b2"/><path id="Shape" d="m19.64 37.91c-3.1 0-6.21-1.06-5.18-5.28s2.08-5.27 5.18-5.27 8.29 0 8.29 4.22c0 7.38-5.18 6.33-8.29 6.33z" fill="#ffe0b2"/><path id="Shape" d="m30 44.99c0 1-3 1.75-3-.25 0-.99 0-4.74 2-4.74.2669495-.0057903.5246816.097706.7134878.2865122s.2923025.4465383.2865122.7134878c-.0057903-.2669495.097706-.5246816.2865122-.7134878s.4465383-.2923025.7134878-.2865122c2 0 2 3.75 2 4.74 0 2-3 1.25-3 .25z" fill="#37474f"/><g fill="#dfc49c"><path id="Shape" d="m29.887 45.32c-.3503561.404787-.8521347.6471746-1.387.67.5594754.1068125 1.1228951-.1653513 1.387-.67z"/><path id="Shape" d="m51.05 35.98c.01-.01.01-.01 0-.02-.0774861-.5715577-.1978251-1.1364825-.36-1.69l-.01-.01c-.843825.5961375-1.7279423 1.1330901-2.646 1.607 0 .031.012.061.016.093.01.01.01.01 0 .02.25 2.01-.16 4.12-2.41 5.28-3.8 1.95-5.8 3.02-6.25 9.75-.0579356.9058404-.6780104 1.6779335-1.55 1.93-.1566995.040843-.3180683.0610141-.48.0600364l3-.0000364c.1619317.0010141.3233005-.019157.48-.06.8719896-.2520665 1.4920644-1.0241596 1.55-1.93.45-6.73 2.45-7.8 6.25-9.75 2.25-1.16 2.66-3.27 2.41-5.28z"/><path id="Shape" d="m47.45 16c0 4.61-.84 8.28-3.23 9.88-1.55 1.03-5.71 1.12-6.48 1.12h-.21c-3.24 0-8.64 0-8.64 4.4 0 7.287 4.833 6.694 8.1 6.609-2.611-.214-5.1-1.384-5.1-6.609 0-4.4 5.4-4.4 8.64-4.4h.21c.77 0 4.93-.09 6.48-1.12 2.39-1.6 3.23-5.27 3.23-9.88 0-5.93-7.54-6-7.86-6h-3c.32 0 7.86.07 7.86 6z"/><path id="Shape" d="m19.64 37.91c-3.1 0-6.21-1.06-5.18-5.28.934-3.78 1.873-5.017 4.3-5.231-.751-.037-1.479-.039-2.118-.039-3.1 0-4.14 1.06-5.18 5.27s2.08 5.28 5.18 5.28c1 0 2.218.106 3.407.007-.139-.003-.278-.007-.409-.007z"/><path id="Shape" d="m30.67 3.35.04.11c-2.15.79-3.47 1.51-3.47 2.39 0 1.04 0 4.15 5.09 4.15h3c-5.09 0-5.09-3.11-5.09-4.15 0-.88 1.32-1.6 3.47-2.39l-.04-.11c-1.1985088-.17477872-2.4089074-.25502615-3.62-.24-.52 0-1.037.016-1.552.039.7271474.02697599 1.4522509.09407811 2.172.201z"/></g><path id="Shape" d="m27.93 31.58c0 7.38-5.18 6.33-8.29 6.33s-6.21-1.06-5.18-5.28 2.08-5.27 5.18-5.27 8.29 0 8.29 4.22z" fill="#37474f"/><path id="Shape" d="m46.57 56.89c0 2.33-7.03 2.11-9.32 2.11h-25.37c-5.45486155-.1181186-10.01503897-4.1831042-10.75667766-9.588605-.74163869-5.4055008 2.55519989-10.5484748 7.77667766-12.131395-.01179129 1.6888403.9441212 3.235398 2.46 3.98 2.19 1.12 3.78 1.95 4.82 3.74h-4.72c-1.3807119 0-2.5 1.1192881-2.5 2.5s1.1192881 2.5 2.5 2.5h6.07c.03.32.06.66.08 1.01.0566197 1.0901168.9389724 1.9550832 2.03 1.99h20.72c.1619317.0010141.3233005-.019157.48-.06 1.45.82 5.73 3.29 5.73 3.95z" fill="#60a917"/><path id="Shape" d="m46.57 56.89c0 2.33-7.03 2.11-9.32 2.11h-25.37c-5.45486155-.1181186-10.01503897-4.1831042-10.75667766-9.588605-.74163869-5.4055008 2.55519989-10.5484748 7.77667766-12.131395-.01179129 1.6888403.9441212 3.235398 2.46 3.98 2.19 1.12 3.78 1.95 4.82 3.74h-4.72c-1.3807119 0-2.5 1.1192881-2.5 2.5s1.1192881 2.5 2.5 2.5h6.07c.03.32.06.66.08 1.01.0566197 1.0901168.9389724 1.9550832 2.03 1.99h20.72c.1619317.0010141.3233005-.019157.48-.06 1.45.82 5.73 3.29 5.73 3.95z" fill="#60a917"/><path id="Shape" d="m9 47.5c-.00532577-.6577433.25086515-1.2906605.71220924-1.7595061.46134406-.4688456 1.09004716-.7352109 1.74779076-.7404939h-3c-1.38071187 0-2.5 1.1192881-2.5 2.5s1.11928813 2.5 2.5 2.5h3c-.6577436-.005283-1.2864467-.2716483-1.74779076-.7404939-.46134409-.4688456-.71753501-1.1017628-.71220924-1.7595061z" fill="#549414"/><path id="Shape" d="m14.61 51.01c.0566197 1.0901168.9389724 1.9550832 2.03 1.99h3c-1.0910276-.0349168-1.9733803-.8998832-2.03-1.99-.02-.35-.05-.69-.08-1.01h-3c.03.32.06.66.08 1.01z" fill="#549414"/><path id="Shape" d="m8.36 41.26c2.19 1.12 3.78 1.95 4.82 3.74h3c-1.04-1.79-2.63-2.62-4.82-3.74-1.5158788-.744602-2.47179129-2.2911597-2.46-3.98-.98847628.2902215-1.92985899.7216746-2.795 1.281.32537382 1.1837571 1.14796676 2.1683151 2.255 2.699z" fill="#549414"/><path id="Shape" d="m40.84 52.94c-.1566995.040843-.3180683.0610141-.48.06h-2.414c1.535.871 5.624 3.244 5.624 3.89 0 1.79-4.142 2.074-7.1 2.11h.784c2.29 0 9.32.22 9.32-2.11-.004-.66-4.284-3.13-5.734-3.95z" fill="#549414"/><path id="Shape" d="m59 16.22c0 7.31-2.32 12.88-6.42 16.53-.6025993.5408378-1.23707 1.0450751-1.9 1.51-2.8888091 2.1346332-6.3115721 3.4289844-9.89 3.74h-.26c-3.24 0-8.64 1.1-8.64-6.6 0-4.4 5.4-4.4 8.64-4.4h.21c.77 0 4.93-.09 6.48-1.12 2.39-1.6 3.23-5.27 3.23-9.88 0-5.93-7.54-6-7.86-6h-7.26c-5.09 0-5.09-3.11-5.09-4.15 0-.88 1.32-1.6 3.47-2.39.4-.15.83-.3 1.29-.46 3.06-1.04 4-1 7.46-1 6.55 0 16.54 3.57 16.54 14.22z" fill="#60a917"/><path id="Shape" d="m42.46 2c-.924 0-1.666 0-2.319.013 6.538.239 15.859 3.92 15.859 14.207 0 7.31-2.32 12.88-6.42 16.53-.6025993.5408378-1.23707 1.0450751-1.9 1.51-2.8888091 2.1346332-6.3115721 3.4289844-9.89 3.74h-.26c-.174 0-.357 0-.542.009 1.237.1 2.5-.009 3.542-.009h.26c3.5784279-.3110156 7.0011909-1.6053668 9.89-3.74.66293-.4649249 1.2974007-.9691622 1.9-1.51 4.1-3.65 6.42-9.22 6.42-16.53 0-10.65-9.99-14.22-16.54-14.22z" fill="#549414"/><path id="Shape" d="m19.643 38.905c.32 0 .663.012 1.02.024.415.014.85.029 1.295.029 1.83851.1590899 3.6648777-.419002 5.077-1.607 1.275-1.232 1.894-3.12 1.894-5.772 0-5.218-6.273-5.218-9.286-5.218-4 0-5.125 1.861-6.15 6.034-.5121212 1.5222141-.2708788 3.1971786.65 4.513 1.039 1.325 2.889 1.997 5.5 1.997zm-4.208-6.033c1.022-4.161 1.866-4.511 4.208-4.511 4.614 0 7.286.526 7.286 3.218 0 2.052-.432 3.51-1.283 4.334-1.184 1.143-3.161 1.078-4.916 1.017-.38-.013-.746-.025-1.087-.025-1.351 0-3.129-.213-3.927-1.231-.5192008-.8412175-.6228176-1.8744349-.281-2.802z" fill="#000"/><path id="Shape" d="m26 44.744c-.0297363.6707479.255433 1.3169097.771 1.747.9747792.6439805 2.2347492.6634908 3.229.05.5097163.2993596 1.0898779.4577737 1.681.459.5594482.0152199 1.1067529-.1647401 1.548-.509.515567-.4300903.8007363-1.0762521.771-1.747 0-3.811-1.01-5.744-3-5.744-.3488911-.0049137-.6932059.0797878-1 .246-.3067941-.1662122-.6511089-.2509137-1-.246-1.99 0-3 1.933-3 5.744zm3-3.744c0 .5522847.4477153 1 1 1s1-.4477153 1-1c.371 0 1 .789 1 3.744 0 .191-.037.2-.081.221-.3223543.0688923-.6588678.0093388-.938-.166-.0926366-.468417-.5035107-.8059923-.981-.8059923s-.8883634.3375753-.981.8059923c-.2790934.1754394-.6156476.2350001-.938.166-.044-.016-.081-.03-.081-.221 0-2.955.629-3.744 1-3.744z" fill="#000"/><path id="Shape" d="m11.88 60h25.37.55.708c3.415 0 6.991-.181 8.406-1.587.4173803-.3985031.6542742-.9499315.656-1.527 0-.558-.013-1.192-4.886-4.043.4063382-.5036895.6504078-1.1187447.7-1.764.42-6.213 2.079-7.065 5.718-8.934 2.284-1.183 3.3-3.344 2.941-6.253 0-.021 0-.042-.007-.064-.0528783-.3951509-.1259742-.7873319-.219-1.175.482-.365.96-.744 1.422-1.157 4.424-3.928 6.761-9.902 6.761-17.274 0-11.168-10.487-15.222-17.537-15.222h-.346c-2.5260823-.1842095-5.0623168.17484602-7.438 1.053-.3.1-.592.2-.879.306-1.241485-.18169335-2.4953913-.26495274-3.75-.249-12.36 0-24.83 6.716-24.83 21.72 0 3.551 1.453 8.65 2.737 12.06v.01c-.028.228-.033.443-.044.662-4.75731742 1.759249-7.91511802 6.2958188-7.913 11.368-.04438348 6.6103336 5.26979427 12.0095024 11.88 12.07zm23.441-56.053c2.795-.947 3.618-.947 6.795-.947h.347c5.374 0 15.537 2.764 15.537 13.222 0 6.784-2.1 12.242-6.089 15.785-4.099 3.663-8.969 4.993-11.241 4.993h-.139c-.355 0-.737.013-1.134.026-1.838.061-3.912.132-5.158-1.073-.9-.868-1.352-2.4-1.352-4.553 0-3.137 3.776-3.4 7.644-3.4h.211.065c1.074-.006 5.208-.115 6.964-1.286 2.473-1.65 3.676-5.154 3.676-10.712 0-5.526-5.568-7-8.858-7h-7.257c-4.093 0-4.093-2.126-4.1-3.111.094-.241.747-.81 4.089-1.944zm-5.271.163h.125c-.4494283.34294534-.7601004.83647007-.875 1.39-1.5661618.31019097-3.0089578 1.06736367-4.154 2.18-.2708275.27669655-.5105858.58217883-.715.911-1.6691877.31942764-3.2155729 1.09989493-4.464 2.253-.3771245.3958211-.3664667 1.0211343.0239276 1.4038738.3903943.3827396 1.015796.3810141 1.4040724-.0038738.6529661-.5928904 1.4105166-1.0591536 2.234-1.375-.1307257 1.0371763-.0476868 2.0901361.244 3.094.1035267.3488865.3884163.6139879.7438407.692174s.7252647-.0428879.9656453-.3161218c.2403806-.2732338.3133471-.655486.190514-.9980522-.007-.026-.827-2.605.8-4.26.7998863-.77236515 1.7941189-1.31354284 2.877-1.566.762 2.828 3.513 3.485 5.882 3.485h7.257c.28 0 6.858.057 6.858 5 0 4.771-.937 7.815-2.786 9.048-1.14.761-4.661.957-5.842.955-.025 0-.05 0-.077 0h-.211c-3.37 0-9.644 0-9.644 5.4 0 2.754.641 4.714 1.962 5.991 1.4661752 1.2307301 3.3608893 1.8292123 5.268 1.664.464 0 .916-.015 1.348-.03.373-.013.731-.025 1.066-.025h.259.064c3.2667463-.2554317 6.4183563-1.3208615 9.17-3.1.007.045.018.094.024.139 0 .024 0 .049.006.073.267 2.082-.345 3.478-1.868 4.266-4.14 2.127-6.322 3.563-6.8 10.57-.0160852.564877-.4645372 1.0220453-1.029 1.049h-1.357v-2c0-.5522847-.4477153-1-1-1s-1 .4477153-1 1v2h-2v-2c0-.5522847-.4477153-1-1-1s-1 .4477153-1 1v2h-2v-2c0-.5522847-.4477153-1-1-1s-1 .4477153-1 1v2h-2v-2c0-.5522847-.4477153-1-1-1s-1 .4477153-1 1v2h-2v-2c0-.5522847-.4477153-1-1-1s-1 .4477153-1 1v2h-1.357c-.5674044-.0240807-1.0188134-.4842379-1.032-1.052-.475-7.014-2.657-8.45-6.794-10.575-1.526-.79-2.138-2.186-1.871-4.268 0-.025.005-.05.007-.075.2159917-1.3704562.6437685-2.6989932 1.268-3.938 1.124-2.315 1.136-6.656 1.136-6.84 0-.5522847-.4477153-1-1-1s-1 .4477153-1 1c0 1.125-.169 4.391-.933 5.964-.172.349-.356.772-.537 1.223-.94055667-2.7815723-1.50128729-5.6773911-1.667-8.609 0-14.556 12.299-19.72 22.83-19.72zm-14.479 41.89c.4217527.9539388.7007449 1.9647799.828 3h-4.939c-.8284271 0-1.49999991-.6715729-1.49999991-1.5s.67157281-1.5 1.49999991-1.5zm-7.485-7.361c.36431268 1.5329659 1.39714804 2.8216244 2.814 3.511 1.0943461.5081502 2.1332056 1.1281147 3.1 1.85h-2.54c-1.93299662 0-3.5 1.5670034-3.5 3.5s1.56700338 3.5 3.5 3.5h5.149c0 .031 0 .058.007.089.0979653 1.6100919 1.4143105 2.8759924 3.027 2.911h20.714c.093 0 .182-.019.273-.027 1.682077.9013267 3.2933655 1.928941 4.82 3.074-1.155.994-6.023.96-7.638.955l-25.932-.002c-5.5063419-.0588051-9.92607873-4.5635369-9.88-10.07-.0036308-4.0329481 2.38741401-7.6831613 6.086-9.291z" fill="#000"/><circle id="Oval" cx="37" cy="6" fill="#000" r="1"/></g></g></svg>