<svg id="Capa_1" enable-background="new 0 0 512 512" height="512" viewBox="0 0 512 512" width="512" xmlns="http://www.w3.org/2000/svg"><g><g><path d="m438.797 302.245c15.172-28.871 23.718-61.768 23.583-96.678-.441-113.94-92.44-205.567-206.381-205.567-113.981 0-206.381 92.4-206.381 206.382 0 34.607 8.531 67.217 23.585 95.863-14.358 11.339-23.585 28.888-23.585 48.604 0 34.194 27.72 61.914 61.915 61.914v47.641c0 28.495 23.1 51.595 51.595 51.595h185.744c28.495 0 51.595-23.1 51.595-51.595v-47.641c34.195 0 61.915-27.72 61.915-61.914 0-19.716-9.227-37.265-23.585-48.604z" fill="#fff1ce"/></g><g><path d="m438.826 302.269c-29.69 16.537-63.877 25.971-100.273 25.971-113.982 0-206.382-92.4-206.382-206.382 0-34.63 8.542-67.26 23.614-95.919-63.321 35.242-106.167 102.834-106.167 180.443 0 34.607 8.531 67.217 23.585 95.863-14.358 11.339-23.585 28.888-23.585 48.604 0 34.194 27.72 61.914 61.915 61.914v47.641c0 28.495 23.1 51.595 51.595 51.595h185.744c28.495 0 51.595-23.1 51.595-51.595v-47.641c34.195 0 61.915-27.72 61.915-61.914 0-19.702-9.215-37.241-23.556-48.58z" fill="#ffe1bd"/></g><g><g><path d="m295.261 354.371-30.253-54.135c-3.938-7.047-14.078-7.047-18.016 0l-30.253 54.135c-3.844 6.878 1.128 15.353 9.008 15.353h60.506c7.88 0 12.852-8.475 9.008-15.353z" fill="#ffcb97"/></g></g><g><path d="m247.696 354.371 23.782-42.556-6.471-11.579c-3.938-7.047-14.078-7.047-18.016 0l-30.253 54.135c-3.844 6.878 1.128 15.353 9.008 15.353h30.957c-7.878 0-12.85-8.475-9.007-15.353z" fill="#ffbd86"/></g><g><circle cx="348.872" cy="249.903" fill="#ffcb97" r="51.595"/></g><g><path d="m328.234 249.903c0-23.102 15.185-42.655 36.117-49.23-4.887-1.535-10.085-2.366-15.479-2.366-28.495 0-51.595 23.1-51.595 51.595s23.1 51.595 51.595 51.595c5.393 0 10.592-.831 15.479-2.366-20.933-6.573-36.117-26.126-36.117-49.228z" fill="#ffbd86"/></g><g><circle cx="163.128" cy="249.903" fill="#ffcb97" r="51.595"/></g><g><path d="m142.49 249.903c0-23.102 15.185-42.655 36.117-49.23-4.887-1.535-10.085-2.366-15.479-2.366-28.495 0-51.595 23.1-51.595 51.595s23.1 51.595 51.595 51.595c5.393 0 10.592-.831 15.479-2.366-20.932-6.573-36.117-26.126-36.117-49.228z" fill="#ffbd86"/></g><g><path d="m181.703 412.764c10.258 0 18.574 8.316 18.574 18.574v80.662h-37.149v-80.662c0-10.258 8.316-18.574 18.575-18.574z" fill="#ffbd86"/></g><g><path d="m256 412.764c10.258 0 18.574 8.316 18.574 18.574v80.662h-37.149v-80.662c.001-10.258 8.317-18.574 18.575-18.574z" fill="#ffbd86"/></g><g><path d="m330.297 412.764c10.258 0 18.574 8.316 18.574 18.574v80.662h-37.149v-80.662c.001-10.258 8.317-18.574 18.575-18.574z" fill="#ffbd86"/></g><path d="m377.463 39.36c-4.084-2.97-8.28-5.793-12.584-8.462l-27.33 27.33c-.002.002-.003.003-.005.005s-.003.003-.005.005l-17.914 17.914c-8.329 8.329-19.402 12.916-31.18 12.916h-11.381c-15.75 0-28.564 12.813-28.564 28.564v56.775c0 4.143 3.358 7.5 7.5 7.5s7.5-3.357 7.5-7.5v-56.775c0-7.479 6.085-13.564 13.564-13.564h11.381c15.784 0 30.624-6.147 41.787-17.309l12.615-12.615 15.616 15.616c4.013 4.013 5.112 9.538 2.94 14.781-2.172 5.244-6.856 8.374-12.532 8.374-4.142 0-7.5 3.357-7.5 7.5s3.358 7.5 7.5 7.5c11.773 0 21.885-6.757 26.39-17.634 4.505-10.876 2.132-22.805-6.192-31.129l-15.616-15.616 23.18-23.18c.313-.311.584-.647.83-.996z" fill="#ffe1bd"/></g></svg>